<?xml version="1.0" encoding="utf-8" standalone="no"?>
<!DOCTYPE svg PUBLIC "-//W3C//DTD SVG 1.1//EN"
  "http://www.w3.org/Graphics/SVG/1.1/DTD/svg11.dtd">
<svg xmlns:xlink="http://www.w3.org/1999/xlink" width="1047.101875pt" height="379.646875pt" viewBox="0 0 1047.101875 379.646875" xmlns="http://www.w3.org/2000/svg" version="1.1">
 <metadata>
  <rdf:RDF xmlns:dc="http://purl.org/dc/elements/1.1/" xmlns:cc="http://creativecommons.org/ns#" xmlns:rdf="http://www.w3.org/1999/02/22-rdf-syntax-ns#">
   <cc:Work>
    <dc:type rdf:resource="http://purl.org/dc/dcmitype/StillImage"/>
    <dc:date>2025-05-30T10:18:06.926884</dc:date>
    <dc:format>image/svg+xml</dc:format>
    <dc:creator>
     <cc:Agent>
      <dc:title>Matplotlib v3.7.1, https://matplotlib.org/</dc:title>
     </cc:Agent>
    </dc:creator>
   </cc:Work>
  </rdf:RDF>
 </metadata>
 <defs>
  <style type="text/css">*{stroke-linejoin: round; stroke-linecap: butt}</style>
 </defs>
 <g id="figure_1">
  <g id="patch_1">
   <path d="M -0 379.646875 
L 1047.101875 379.646875 
L 1047.101875 0 
L -0 0 
z
" style="fill: #ffffff"/>
  </g>
  <g id="axes_1">
   <g id="patch_2">
    <path d="M 91.301875 339.84 
L 1039.901875 339.84 
L 1039.901875 7.2 
L 91.301875 7.2 
z
" style="fill: #ffffff"/>
   </g>
   <g id="matplotlib.axis_1">
    <g id="xtick_1">
     <g id="line2d_1">
      <path d="M 186.161875 339.84 
L 186.161875 7.2 
" clip-path="url(#pf2fdedc688)" style="fill: none; stroke: #cccccc; stroke-width: 0.8; stroke-linecap: round"/>
     </g>
     <g id="text_1">
      <!-- Class 1 -->
      <g style="fill: #262626" transform="translate(139.480625 366.881875) scale(0.28 -0.28)">
       <defs>
        <path id="ArialMT-43" d="M 3763 1606 
L 4369 1453 
Q 4178 706 3683 314 
Q 3188 -78 2472 -78 
Q 1731 -78 1267 223 
Q 803 525 561 1097 
Q 319 1669 319 2325 
Q 319 3041 592 3573 
Q 866 4106 1370 4382 
Q 1875 4659 2481 4659 
Q 3169 4659 3637 4309 
Q 4106 3959 4291 3325 
L 3694 3184 
Q 3534 3684 3231 3912 
Q 2928 4141 2469 4141 
Q 1941 4141 1586 3887 
Q 1231 3634 1087 3207 
Q 944 2781 944 2328 
Q 944 1744 1114 1308 
Q 1284 872 1643 656 
Q 2003 441 2422 441 
Q 2931 441 3284 734 
Q 3638 1028 3763 1606 
z
" transform="scale(0.015625)"/>
        <path id="ArialMT-6c" d="M 409 0 
L 409 4581 
L 972 4581 
L 972 0 
L 409 0 
z
" transform="scale(0.015625)"/>
        <path id="ArialMT-61" d="M 2588 409 
Q 2275 144 1986 34 
Q 1697 -75 1366 -75 
Q 819 -75 525 192 
Q 231 459 231 875 
Q 231 1119 342 1320 
Q 453 1522 633 1644 
Q 813 1766 1038 1828 
Q 1203 1872 1538 1913 
Q 2219 1994 2541 2106 
Q 2544 2222 2544 2253 
Q 2544 2597 2384 2738 
Q 2169 2928 1744 2928 
Q 1347 2928 1158 2789 
Q 969 2650 878 2297 
L 328 2372 
Q 403 2725 575 2942 
Q 747 3159 1072 3276 
Q 1397 3394 1825 3394 
Q 2250 3394 2515 3294 
Q 2781 3194 2906 3042 
Q 3031 2891 3081 2659 
Q 3109 2516 3109 2141 
L 3109 1391 
Q 3109 606 3145 398 
Q 3181 191 3288 0 
L 2700 0 
Q 2613 175 2588 409 
z
M 2541 1666 
Q 2234 1541 1622 1453 
Q 1275 1403 1131 1340 
Q 988 1278 909 1158 
Q 831 1038 831 891 
Q 831 666 1001 516 
Q 1172 366 1500 366 
Q 1825 366 2078 508 
Q 2331 650 2450 897 
Q 2541 1088 2541 1459 
L 2541 1666 
z
" transform="scale(0.015625)"/>
        <path id="ArialMT-73" d="M 197 991 
L 753 1078 
Q 800 744 1014 566 
Q 1228 388 1613 388 
Q 2000 388 2187 545 
Q 2375 703 2375 916 
Q 2375 1106 2209 1216 
Q 2094 1291 1634 1406 
Q 1016 1563 777 1677 
Q 538 1791 414 1992 
Q 291 2194 291 2438 
Q 291 2659 392 2848 
Q 494 3038 669 3163 
Q 800 3259 1026 3326 
Q 1253 3394 1513 3394 
Q 1903 3394 2198 3281 
Q 2494 3169 2634 2976 
Q 2775 2784 2828 2463 
L 2278 2388 
Q 2241 2644 2061 2787 
Q 1881 2931 1553 2931 
Q 1166 2931 1000 2803 
Q 834 2675 834 2503 
Q 834 2394 903 2306 
Q 972 2216 1119 2156 
Q 1203 2125 1616 2013 
Q 2213 1853 2448 1751 
Q 2684 1650 2818 1456 
Q 2953 1263 2953 975 
Q 2953 694 2789 445 
Q 2625 197 2315 61 
Q 2006 -75 1616 -75 
Q 969 -75 630 194 
Q 291 463 197 991 
z
" transform="scale(0.015625)"/>
        <path id="ArialMT-20" transform="scale(0.015625)"/>
        <path id="ArialMT-31" d="M 2384 0 
L 1822 0 
L 1822 3584 
Q 1619 3391 1289 3197 
Q 959 3003 697 2906 
L 697 3450 
Q 1169 3672 1522 3987 
Q 1875 4303 2022 4600 
L 2384 4600 
L 2384 0 
z
" transform="scale(0.015625)"/>
       </defs>
       <use xlink:href="#ArialMT-43"/>
       <use xlink:href="#ArialMT-6c" x="72.216797"/>
       <use xlink:href="#ArialMT-61" x="94.433594"/>
       <use xlink:href="#ArialMT-73" x="150.048828"/>
       <use xlink:href="#ArialMT-73" x="200.048828"/>
       <use xlink:href="#ArialMT-20" x="250.048828"/>
       <use xlink:href="#ArialMT-31" x="277.832031"/>
      </g>
     </g>
    </g>
    <g id="xtick_2">
     <g id="line2d_2">
      <path d="M 375.881875 339.84 
L 375.881875 7.2 
" clip-path="url(#pf2fdedc688)" style="fill: none; stroke: #cccccc; stroke-width: 0.8; stroke-linecap: round"/>
     </g>
     <g id="text_2">
      <!-- Class 2 -->
      <g style="fill: #262626" transform="translate(329.200625 366.881875) scale(0.28 -0.28)">
       <defs>
        <path id="ArialMT-32" d="M 3222 541 
L 3222 0 
L 194 0 
Q 188 203 259 391 
Q 375 700 629 1000 
Q 884 1300 1366 1694 
Q 2113 2306 2375 2664 
Q 2638 3022 2638 3341 
Q 2638 3675 2398 3904 
Q 2159 4134 1775 4134 
Q 1369 4134 1125 3890 
Q 881 3647 878 3216 
L 300 3275 
Q 359 3922 746 4261 
Q 1134 4600 1788 4600 
Q 2447 4600 2831 4234 
Q 3216 3869 3216 3328 
Q 3216 3053 3103 2787 
Q 2991 2522 2730 2228 
Q 2469 1934 1863 1422 
Q 1356 997 1212 845 
Q 1069 694 975 541 
L 3222 541 
z
" transform="scale(0.015625)"/>
       </defs>
       <use xlink:href="#ArialMT-43"/>
       <use xlink:href="#ArialMT-6c" x="72.216797"/>
       <use xlink:href="#ArialMT-61" x="94.433594"/>
       <use xlink:href="#ArialMT-73" x="150.048828"/>
       <use xlink:href="#ArialMT-73" x="200.048828"/>
       <use xlink:href="#ArialMT-20" x="250.048828"/>
       <use xlink:href="#ArialMT-32" x="277.832031"/>
      </g>
     </g>
    </g>
    <g id="xtick_3">
     <g id="line2d_3">
      <path d="M 565.601875 339.84 
L 565.601875 7.2 
" clip-path="url(#pf2fdedc688)" style="fill: none; stroke: #cccccc; stroke-width: 0.8; stroke-linecap: round"/>
     </g>
     <g id="text_3">
      <!-- Class 3 -->
      <g style="fill: #262626" transform="translate(518.920625 366.881875) scale(0.28 -0.28)">
       <defs>
        <path id="ArialMT-33" d="M 269 1209 
L 831 1284 
Q 928 806 1161 595 
Q 1394 384 1728 384 
Q 2125 384 2398 659 
Q 2672 934 2672 1341 
Q 2672 1728 2419 1979 
Q 2166 2231 1775 2231 
Q 1616 2231 1378 2169 
L 1441 2663 
Q 1497 2656 1531 2656 
Q 1891 2656 2178 2843 
Q 2466 3031 2466 3422 
Q 2466 3731 2256 3934 
Q 2047 4138 1716 4138 
Q 1388 4138 1169 3931 
Q 950 3725 888 3313 
L 325 3413 
Q 428 3978 793 4289 
Q 1159 4600 1703 4600 
Q 2078 4600 2393 4439 
Q 2709 4278 2876 4000 
Q 3044 3722 3044 3409 
Q 3044 3113 2884 2869 
Q 2725 2625 2413 2481 
Q 2819 2388 3044 2092 
Q 3269 1797 3269 1353 
Q 3269 753 2831 336 
Q 2394 -81 1725 -81 
Q 1122 -81 723 278 
Q 325 638 269 1209 
z
" transform="scale(0.015625)"/>
       </defs>
       <use xlink:href="#ArialMT-43"/>
       <use xlink:href="#ArialMT-6c" x="72.216797"/>
       <use xlink:href="#ArialMT-61" x="94.433594"/>
       <use xlink:href="#ArialMT-73" x="150.048828"/>
       <use xlink:href="#ArialMT-73" x="200.048828"/>
       <use xlink:href="#ArialMT-20" x="250.048828"/>
       <use xlink:href="#ArialMT-33" x="277.832031"/>
      </g>
     </g>
    </g>
    <g id="xtick_4">
     <g id="line2d_4">
      <path d="M 755.321875 339.84 
L 755.321875 7.2 
" clip-path="url(#pf2fdedc688)" style="fill: none; stroke: #cccccc; stroke-width: 0.8; stroke-linecap: round"/>
     </g>
     <g id="text_4">
      <!-- Class 4 -->
      <g style="fill: #262626" transform="translate(708.640625 366.881875) scale(0.28 -0.28)">
       <defs>
        <path id="ArialMT-34" d="M 2069 0 
L 2069 1097 
L 81 1097 
L 81 1613 
L 2172 4581 
L 2631 4581 
L 2631 1613 
L 3250 1613 
L 3250 1097 
L 2631 1097 
L 2631 0 
L 2069 0 
z
M 2069 1613 
L 2069 3678 
L 634 1613 
L 2069 1613 
z
" transform="scale(0.015625)"/>
       </defs>
       <use xlink:href="#ArialMT-43"/>
       <use xlink:href="#ArialMT-6c" x="72.216797"/>
       <use xlink:href="#ArialMT-61" x="94.433594"/>
       <use xlink:href="#ArialMT-73" x="150.048828"/>
       <use xlink:href="#ArialMT-73" x="200.048828"/>
       <use xlink:href="#ArialMT-20" x="250.048828"/>
       <use xlink:href="#ArialMT-34" x="277.832031"/>
      </g>
     </g>
    </g>
    <g id="xtick_5">
     <g id="line2d_5">
      <path d="M 945.041875 339.84 
L 945.041875 7.2 
" clip-path="url(#pf2fdedc688)" style="fill: none; stroke: #cccccc; stroke-width: 0.8; stroke-linecap: round"/>
     </g>
     <g id="text_5">
      <!-- Class 5 -->
      <g style="fill: #262626" transform="translate(898.360625 366.881875) scale(0.28 -0.28)">
       <defs>
        <path id="ArialMT-35" d="M 266 1200 
L 856 1250 
Q 922 819 1161 601 
Q 1400 384 1738 384 
Q 2144 384 2425 690 
Q 2706 997 2706 1503 
Q 2706 1984 2436 2262 
Q 2166 2541 1728 2541 
Q 1456 2541 1237 2417 
Q 1019 2294 894 2097 
L 366 2166 
L 809 4519 
L 3088 4519 
L 3088 3981 
L 1259 3981 
L 1013 2750 
Q 1425 3038 1878 3038 
Q 2478 3038 2890 2622 
Q 3303 2206 3303 1553 
Q 3303 931 2941 478 
Q 2500 -78 1738 -78 
Q 1113 -78 717 272 
Q 322 622 266 1200 
z
" transform="scale(0.015625)"/>
       </defs>
       <use xlink:href="#ArialMT-43"/>
       <use xlink:href="#ArialMT-6c" x="72.216797"/>
       <use xlink:href="#ArialMT-61" x="94.433594"/>
       <use xlink:href="#ArialMT-73" x="150.048828"/>
       <use xlink:href="#ArialMT-73" x="200.048828"/>
       <use xlink:href="#ArialMT-20" x="250.048828"/>
       <use xlink:href="#ArialMT-35" x="277.832031"/>
      </g>
     </g>
    </g>
   </g>
   <g id="matplotlib.axis_2">
    <g id="ytick_1">
     <g id="line2d_6">
      <path d="M 91.301875 339.84 
L 1039.901875 339.84 
" clip-path="url(#pf2fdedc688)" style="fill: none; stroke: #cccccc; stroke-width: 0.8; stroke-linecap: round"/>
     </g>
     <g id="text_6">
      <!-- −15 -->
      <g style="fill: #262626" transform="translate(36.806875 349.860938) scale(0.28 -0.28)">
       <defs>
        <path id="ArialMT-2212" d="M 3381 1997 
L 356 1997 
L 356 2522 
L 3381 2522 
L 3381 1997 
z
" transform="scale(0.015625)"/>
       </defs>
       <use xlink:href="#ArialMT-2212"/>
       <use xlink:href="#ArialMT-31" x="58.398438"/>
       <use xlink:href="#ArialMT-35" x="114.013672"/>
      </g>
     </g>
    </g>
    <g id="ytick_2">
     <g id="line2d_7">
      <path d="M 91.301875 279.36 
L 1039.901875 279.36 
" clip-path="url(#pf2fdedc688)" style="fill: none; stroke: #cccccc; stroke-width: 0.8; stroke-linecap: round"/>
     </g>
     <g id="text_7">
      <!-- −5 -->
      <g style="fill: #262626" transform="translate(52.3775 289.380938) scale(0.28 -0.28)">
       <use xlink:href="#ArialMT-2212"/>
       <use xlink:href="#ArialMT-35" x="58.398438"/>
      </g>
     </g>
    </g>
    <g id="ytick_3">
     <g id="line2d_8">
      <path d="M 91.301875 218.88 
L 1039.901875 218.88 
" clip-path="url(#pf2fdedc688)" style="fill: none; stroke: #cccccc; stroke-width: 0.8; stroke-linecap: round"/>
     </g>
     <g id="text_8">
      <!-- 5 -->
      <g style="fill: #262626" transform="translate(68.73125 228.900938) scale(0.28 -0.28)">
       <use xlink:href="#ArialMT-35"/>
      </g>
     </g>
    </g>
    <g id="ytick_4">
     <g id="line2d_9">
      <path d="M 91.301875 158.4 
L 1039.901875 158.4 
" clip-path="url(#pf2fdedc688)" style="fill: none; stroke: #cccccc; stroke-width: 0.8; stroke-linecap: round"/>
     </g>
     <g id="text_9">
      <!-- 15 -->
      <g style="fill: #262626" transform="translate(53.160625 168.420938) scale(0.28 -0.28)">
       <use xlink:href="#ArialMT-31"/>
       <use xlink:href="#ArialMT-35" x="55.615234"/>
      </g>
     </g>
    </g>
    <g id="ytick_5">
     <g id="line2d_10">
      <path d="M 91.301875 97.92 
L 1039.901875 97.92 
" clip-path="url(#pf2fdedc688)" style="fill: none; stroke: #cccccc; stroke-width: 0.8; stroke-linecap: round"/>
     </g>
     <g id="text_10">
      <!-- 25 -->
      <g style="fill: #262626" transform="translate(53.160625 107.940938) scale(0.28 -0.28)">
       <use xlink:href="#ArialMT-32"/>
       <use xlink:href="#ArialMT-35" x="55.615234"/>
      </g>
     </g>
    </g>
    <g id="ytick_6">
     <g id="line2d_11">
      <path d="M 91.301875 37.44 
L 1039.901875 37.44 
" clip-path="url(#pf2fdedc688)" style="fill: none; stroke: #cccccc; stroke-width: 0.8; stroke-linecap: round"/>
     </g>
     <g id="text_11">
      <!-- 35 -->
      <g style="fill: #262626" transform="translate(53.160625 47.460938) scale(0.28 -0.28)">
       <use xlink:href="#ArialMT-33"/>
       <use xlink:href="#ArialMT-35" x="55.615234"/>
      </g>
     </g>
    </g>
    <g id="text_12">
     <!-- QoE Value -->
     <g style="fill: #262626" transform="translate(27.241875 240.195) rotate(-90) scale(0.28 -0.28)">
      <defs>
       <path id="ArialMT-51" d="M 3966 491 
Q 4388 200 4744 66 
L 4566 -356 
Q 4072 -178 3581 206 
Q 3072 -78 2456 -78 
Q 1834 -78 1328 222 
Q 822 522 548 1065 
Q 275 1609 275 2291 
Q 275 2969 550 3525 
Q 825 4081 1333 4372 
Q 1841 4663 2469 4663 
Q 3103 4663 3612 4361 
Q 4122 4059 4389 3517 
Q 4656 2975 4656 2294 
Q 4656 1728 4484 1276 
Q 4313 825 3966 491 
z
M 2631 1266 
Q 3156 1119 3497 828 
Q 4031 1316 4031 2294 
Q 4031 2850 3842 3265 
Q 3653 3681 3289 3911 
Q 2925 4141 2472 4141 
Q 1794 4141 1347 3677 
Q 900 3213 900 2291 
Q 900 1397 1342 919 
Q 1784 441 2472 441 
Q 2797 441 3084 563 
Q 2800 747 2484 825 
L 2631 1266 
z
" transform="scale(0.015625)"/>
       <path id="ArialMT-6f" d="M 213 1659 
Q 213 2581 725 3025 
Q 1153 3394 1769 3394 
Q 2453 3394 2887 2945 
Q 3322 2497 3322 1706 
Q 3322 1066 3130 698 
Q 2938 331 2570 128 
Q 2203 -75 1769 -75 
Q 1072 -75 642 372 
Q 213 819 213 1659 
z
M 791 1659 
Q 791 1022 1069 705 
Q 1347 388 1769 388 
Q 2188 388 2466 706 
Q 2744 1025 2744 1678 
Q 2744 2294 2464 2611 
Q 2184 2928 1769 2928 
Q 1347 2928 1069 2612 
Q 791 2297 791 1659 
z
" transform="scale(0.015625)"/>
       <path id="ArialMT-45" d="M 506 0 
L 506 4581 
L 3819 4581 
L 3819 4041 
L 1113 4041 
L 1113 2638 
L 3647 2638 
L 3647 2100 
L 1113 2100 
L 1113 541 
L 3925 541 
L 3925 0 
L 506 0 
z
" transform="scale(0.015625)"/>
       <path id="ArialMT-56" d="M 1803 0 
L 28 4581 
L 684 4581 
L 1875 1253 
Q 2019 853 2116 503 
Q 2222 878 2363 1253 
L 3600 4581 
L 4219 4581 
L 2425 0 
L 1803 0 
z
" transform="scale(0.015625)"/>
       <path id="ArialMT-75" d="M 2597 0 
L 2597 488 
Q 2209 -75 1544 -75 
Q 1250 -75 995 37 
Q 741 150 617 320 
Q 494 491 444 738 
Q 409 903 409 1263 
L 409 3319 
L 972 3319 
L 972 1478 
Q 972 1038 1006 884 
Q 1059 663 1231 536 
Q 1403 409 1656 409 
Q 1909 409 2131 539 
Q 2353 669 2445 892 
Q 2538 1116 2538 1541 
L 2538 3319 
L 3100 3319 
L 3100 0 
L 2597 0 
z
" transform="scale(0.015625)"/>
       <path id="ArialMT-65" d="M 2694 1069 
L 3275 997 
Q 3138 488 2766 206 
Q 2394 -75 1816 -75 
Q 1088 -75 661 373 
Q 234 822 234 1631 
Q 234 2469 665 2931 
Q 1097 3394 1784 3394 
Q 2450 3394 2872 2941 
Q 3294 2488 3294 1666 
Q 3294 1616 3291 1516 
L 816 1516 
Q 847 969 1125 678 
Q 1403 388 1819 388 
Q 2128 388 2347 550 
Q 2566 713 2694 1069 
z
M 847 1978 
L 2700 1978 
Q 2663 2397 2488 2606 
Q 2219 2931 1791 2931 
Q 1403 2931 1139 2672 
Q 875 2413 847 1978 
z
" transform="scale(0.015625)"/>
      </defs>
      <use xlink:href="#ArialMT-51"/>
      <use xlink:href="#ArialMT-6f" x="77.783203"/>
      <use xlink:href="#ArialMT-45" x="133.398438"/>
      <use xlink:href="#ArialMT-20" x="200.097656"/>
      <use xlink:href="#ArialMT-56" x="227.880859"/>
      <use xlink:href="#ArialMT-61" x="287.205078"/>
      <use xlink:href="#ArialMT-6c" x="342.820312"/>
      <use xlink:href="#ArialMT-75" x="365.037109"/>
      <use xlink:href="#ArialMT-65" x="420.652344"/>
     </g>
    </g>
   </g>
   <g id="LineCollection_1">
    <path d="M 133.040275 279.36 
L 133.040275 222.5088 
" clip-path="url(#pf2fdedc688)" style="fill: none; stroke: #000000; stroke-width: 1.5"/>
    <path d="M 322.760275 272.94912 
L 322.760275 203.39712 
" clip-path="url(#pf2fdedc688)" style="fill: none; stroke: #000000; stroke-width: 1.5"/>
    <path d="M 512.480275 248.99904 
L 512.480275 185.85792 
" clip-path="url(#pf2fdedc688)" style="fill: none; stroke: #000000; stroke-width: 1.5"/>
    <path d="M 702.200275 197.4096 
L 702.200275 129.672 
" clip-path="url(#pf2fdedc688)" style="fill: none; stroke: #000000; stroke-width: 1.5"/>
    <path d="M 891.920275 166.80672 
L 891.920275 100.39968 
" clip-path="url(#pf2fdedc688)" style="fill: none; stroke: #000000; stroke-width: 1.5"/>
   </g>
   <g id="line2d_12">
    <defs>
     <path id="m37c3fe3fae" d="M 12 0 
L -12 -0 
" style="stroke: #000000"/>
    </defs>
    <g clip-path="url(#pf2fdedc688)">
     <use xlink:href="#m37c3fe3fae" x="133.040275" y="279.36" style="stroke: #000000"/>
     <use xlink:href="#m37c3fe3fae" x="322.760275" y="272.94912" style="stroke: #000000"/>
     <use xlink:href="#m37c3fe3fae" x="512.480275" y="248.99904" style="stroke: #000000"/>
     <use xlink:href="#m37c3fe3fae" x="702.200275" y="197.4096" style="stroke: #000000"/>
     <use xlink:href="#m37c3fe3fae" x="891.920275" y="166.80672" style="stroke: #000000"/>
    </g>
   </g>
   <g id="line2d_13">
    <g clip-path="url(#pf2fdedc688)">
     <use xlink:href="#m37c3fe3fae" x="133.040275" y="222.5088" style="stroke: #000000"/>
     <use xlink:href="#m37c3fe3fae" x="322.760275" y="203.39712" style="stroke: #000000"/>
     <use xlink:href="#m37c3fe3fae" x="512.480275" y="185.85792" style="stroke: #000000"/>
     <use xlink:href="#m37c3fe3fae" x="702.200275" y="129.672" style="stroke: #000000"/>
     <use xlink:href="#m37c3fe3fae" x="891.920275" y="100.39968" style="stroke: #000000"/>
    </g>
   </g>
   <g id="LineCollection_2">
    <path d="M 159.601075 321.63552 
L 159.601075 275.30784 
" clip-path="url(#pf2fdedc688)" style="fill: none; stroke: #000000; stroke-width: 1.5"/>
    <path d="M 349.321075 292.0608 
L 349.321075 219.24288 
" clip-path="url(#pf2fdedc688)" style="fill: none; stroke: #000000; stroke-width: 1.5"/>
    <path d="M 539.041075 216.40032 
L 539.041075 162.3312 
" clip-path="url(#pf2fdedc688)" style="fill: none; stroke: #000000; stroke-width: 1.5"/>
    <path d="M 728.761075 164.448 
L 728.761075 110.13696 
" clip-path="url(#pf2fdedc688)" style="fill: none; stroke: #000000; stroke-width: 1.5"/>
    <path d="M 918.481075 155.19456 
L 918.481075 86.61024 
" clip-path="url(#pf2fdedc688)" style="fill: none; stroke: #000000; stroke-width: 1.5"/>
   </g>
   <g id="line2d_14">
    <g clip-path="url(#pf2fdedc688)">
     <use xlink:href="#m37c3fe3fae" x="159.601075" y="321.63552" style="stroke: #000000"/>
     <use xlink:href="#m37c3fe3fae" x="349.321075" y="292.0608" style="stroke: #000000"/>
     <use xlink:href="#m37c3fe3fae" x="539.041075" y="216.40032" style="stroke: #000000"/>
     <use xlink:href="#m37c3fe3fae" x="728.761075" y="164.448" style="stroke: #000000"/>
     <use xlink:href="#m37c3fe3fae" x="918.481075" y="155.19456" style="stroke: #000000"/>
    </g>
   </g>
   <g id="line2d_15">
    <g clip-path="url(#pf2fdedc688)">
     <use xlink:href="#m37c3fe3fae" x="159.601075" y="275.30784" style="stroke: #000000"/>
     <use xlink:href="#m37c3fe3fae" x="349.321075" y="219.24288" style="stroke: #000000"/>
     <use xlink:href="#m37c3fe3fae" x="539.041075" y="162.3312" style="stroke: #000000"/>
     <use xlink:href="#m37c3fe3fae" x="728.761075" y="110.13696" style="stroke: #000000"/>
     <use xlink:href="#m37c3fe3fae" x="918.481075" y="86.61024" style="stroke: #000000"/>
    </g>
   </g>
   <g id="LineCollection_3">
    <path d="M 186.161875 332.34048 
L 186.161875 280.81152 
" clip-path="url(#pf2fdedc688)" style="fill: none; stroke: #000000; stroke-width: 1.5"/>
    <path d="M 375.881875 306.81792 
L 375.881875 237.50784 
" clip-path="url(#pf2fdedc688)" style="fill: none; stroke: #000000; stroke-width: 1.5"/>
    <path d="M 565.601875 265.26816 
L 565.601875 201.15936 
" clip-path="url(#pf2fdedc688)" style="fill: none; stroke: #000000; stroke-width: 1.5"/>
    <path d="M 755.321875 154.89216 
L 755.321875 98.40384 
" clip-path="url(#pf2fdedc688)" style="fill: none; stroke: #000000; stroke-width: 1.5"/>
    <path d="M 945.041875 80.32032 
L 945.041875 23.59008 
" clip-path="url(#pf2fdedc688)" style="fill: none; stroke: #000000; stroke-width: 1.5"/>
   </g>
   <g id="line2d_16">
    <g clip-path="url(#pf2fdedc688)">
     <use xlink:href="#m37c3fe3fae" x="186.161875" y="332.34048" style="stroke: #000000"/>
     <use xlink:href="#m37c3fe3fae" x="375.881875" y="306.81792" style="stroke: #000000"/>
     <use xlink:href="#m37c3fe3fae" x="565.601875" y="265.26816" style="stroke: #000000"/>
     <use xlink:href="#m37c3fe3fae" x="755.321875" y="154.89216" style="stroke: #000000"/>
     <use xlink:href="#m37c3fe3fae" x="945.041875" y="80.32032" style="stroke: #000000"/>
    </g>
   </g>
   <g id="line2d_17">
    <g clip-path="url(#pf2fdedc688)">
     <use xlink:href="#m37c3fe3fae" x="186.161875" y="280.81152" style="stroke: #000000"/>
     <use xlink:href="#m37c3fe3fae" x="375.881875" y="237.50784" style="stroke: #000000"/>
     <use xlink:href="#m37c3fe3fae" x="565.601875" y="201.15936" style="stroke: #000000"/>
     <use xlink:href="#m37c3fe3fae" x="755.321875" y="98.40384" style="stroke: #000000"/>
     <use xlink:href="#m37c3fe3fae" x="945.041875" y="23.59008" style="stroke: #000000"/>
    </g>
   </g>
   <g id="LineCollection_4">
    <path d="M 212.722675 309.2976 
L 212.722675 256.55904 
" clip-path="url(#pf2fdedc688)" style="fill: none; stroke: #000000; stroke-width: 1.5"/>
    <path d="M 402.442675 267.68736 
L 402.442675 195.47424 
" clip-path="url(#pf2fdedc688)" style="fill: none; stroke: #000000; stroke-width: 1.5"/>
    <path d="M 592.162675 226.19808 
L 592.162675 174.4272 
" clip-path="url(#pf2fdedc688)" style="fill: none; stroke: #000000; stroke-width: 1.5"/>
    <path d="M 781.882675 150.59808 
L 781.882675 87.57792 
" clip-path="url(#pf2fdedc688)" style="fill: none; stroke: #000000; stroke-width: 1.5"/>
    <path d="M 971.602675 116.91072 
L 971.602675 42.64128 
" clip-path="url(#pf2fdedc688)" style="fill: none; stroke: #000000; stroke-width: 1.5"/>
   </g>
   <g id="line2d_18">
    <g clip-path="url(#pf2fdedc688)">
     <use xlink:href="#m37c3fe3fae" x="212.722675" y="309.2976" style="stroke: #000000"/>
     <use xlink:href="#m37c3fe3fae" x="402.442675" y="267.68736" style="stroke: #000000"/>
     <use xlink:href="#m37c3fe3fae" x="592.162675" y="226.19808" style="stroke: #000000"/>
     <use xlink:href="#m37c3fe3fae" x="781.882675" y="150.59808" style="stroke: #000000"/>
     <use xlink:href="#m37c3fe3fae" x="971.602675" y="116.91072" style="stroke: #000000"/>
    </g>
   </g>
   <g id="line2d_19">
    <g clip-path="url(#pf2fdedc688)">
     <use xlink:href="#m37c3fe3fae" x="212.722675" y="256.55904" style="stroke: #000000"/>
     <use xlink:href="#m37c3fe3fae" x="402.442675" y="195.47424" style="stroke: #000000"/>
     <use xlink:href="#m37c3fe3fae" x="592.162675" y="174.4272" style="stroke: #000000"/>
     <use xlink:href="#m37c3fe3fae" x="781.882675" y="87.57792" style="stroke: #000000"/>
     <use xlink:href="#m37c3fe3fae" x="971.602675" y="42.64128" style="stroke: #000000"/>
    </g>
   </g>
   <g id="LineCollection_5">
    <path d="M 239.283475 286.92 
L 239.283475 228.37536 
" clip-path="url(#pf2fdedc688)" style="fill: none; stroke: #000000; stroke-width: 1.5"/>
    <path d="M 429.003475 254.20032 
L 429.003475 182.592 
" clip-path="url(#pf2fdedc688)" style="fill: none; stroke: #000000; stroke-width: 1.5"/>
    <path d="M 618.723475 221.72256 
L 618.723475 161.48448 
" clip-path="url(#pf2fdedc688)" style="fill: none; stroke: #000000; stroke-width: 1.5"/>
    <path d="M 808.443475 136.6272 
L 808.443475 76.752 
" clip-path="url(#pf2fdedc688)" style="fill: none; stroke: #000000; stroke-width: 1.5"/>
    <path d="M 998.163475 94.65408 
L 998.163475 21.47328 
" clip-path="url(#pf2fdedc688)" style="fill: none; stroke: #000000; stroke-width: 1.5"/>
   </g>
   <g id="line2d_20">
    <g clip-path="url(#pf2fdedc688)">
     <use xlink:href="#m37c3fe3fae" x="239.283475" y="286.92" style="stroke: #000000"/>
     <use xlink:href="#m37c3fe3fae" x="429.003475" y="254.20032" style="stroke: #000000"/>
     <use xlink:href="#m37c3fe3fae" x="618.723475" y="221.72256" style="stroke: #000000"/>
     <use xlink:href="#m37c3fe3fae" x="808.443475" y="136.6272" style="stroke: #000000"/>
     <use xlink:href="#m37c3fe3fae" x="998.163475" y="94.65408" style="stroke: #000000"/>
    </g>
   </g>
   <g id="line2d_21">
    <g clip-path="url(#pf2fdedc688)">
     <use xlink:href="#m37c3fe3fae" x="239.283475" y="228.37536" style="stroke: #000000"/>
     <use xlink:href="#m37c3fe3fae" x="429.003475" y="182.592" style="stroke: #000000"/>
     <use xlink:href="#m37c3fe3fae" x="618.723475" y="161.48448" style="stroke: #000000"/>
     <use xlink:href="#m37c3fe3fae" x="808.443475" y="76.752" style="stroke: #000000"/>
     <use xlink:href="#m37c3fe3fae" x="998.163475" y="21.47328" style="stroke: #000000"/>
    </g>
   </g>
   <g id="line2d_22">
    <path d="M 281.021875 339.84 
L 281.021875 7.2 
" clip-path="url(#pf2fdedc688)" style="fill: none; stroke-dasharray: 7.4,3.2; stroke-dashoffset: 0; stroke: #808080; stroke-width: 2"/>
   </g>
   <g id="line2d_23">
    <path d="M 470.741875 339.84 
L 470.741875 7.2 
" clip-path="url(#pf2fdedc688)" style="fill: none; stroke-dasharray: 7.4,3.2; stroke-dashoffset: 0; stroke: #808080; stroke-width: 2"/>
   </g>
   <g id="line2d_24">
    <path d="M 660.461875 339.84 
L 660.461875 7.2 
" clip-path="url(#pf2fdedc688)" style="fill: none; stroke-dasharray: 7.4,3.2; stroke-dashoffset: 0; stroke: #808080; stroke-width: 2"/>
   </g>
   <g id="line2d_25">
    <path d="M 850.181875 339.84 
L 850.181875 7.2 
" clip-path="url(#pf2fdedc688)" style="fill: none; stroke-dasharray: 7.4,3.2; stroke-dashoffset: 0; stroke: #808080; stroke-width: 2"/>
   </g>
   <g id="line2d_26">
    <defs>
     <path id="mfe31658640" d="M -0 12.5 
L 12.5 -12.5 
L -12.5 -12.5 
z
" style="stroke: #000000; stroke-linejoin: miter"/>
    </defs>
    <g clip-path="url(#pf2fdedc688)">
     <use xlink:href="#mfe31658640" x="133.040275" y="250.9344" style="fill: #547bb4; stroke: #000000; stroke-linejoin: miter"/>
     <use xlink:href="#mfe31658640" x="322.760275" y="238.17312" style="fill: #547bb4; stroke: #000000; stroke-linejoin: miter"/>
     <use xlink:href="#mfe31658640" x="512.480275" y="217.42848" style="fill: #547bb4; stroke: #000000; stroke-linejoin: miter"/>
     <use xlink:href="#mfe31658640" x="702.200275" y="163.5408" style="fill: #547bb4; stroke: #000000; stroke-linejoin: miter"/>
     <use xlink:href="#mfe31658640" x="891.920275" y="133.6032" style="fill: #547bb4; stroke: #000000; stroke-linejoin: miter"/>
    </g>
   </g>
   <g id="line2d_27">
    <defs>
     <path id="m888b8934f9" d="M 0 -12.5 
L -12.5 12.5 
L 12.5 12.5 
z
" style="stroke: #000000; stroke-linejoin: miter"/>
    </defs>
    <g clip-path="url(#pf2fdedc688)">
     <use xlink:href="#m888b8934f9" x="159.601075" y="298.47168" style="fill: #dd7c4f; stroke: #000000; stroke-linejoin: miter"/>
     <use xlink:href="#m888b8934f9" x="349.321075" y="255.65184" style="fill: #dd7c4f; stroke: #000000; stroke-linejoin: miter"/>
     <use xlink:href="#m888b8934f9" x="539.041075" y="189.36576" style="fill: #dd7c4f; stroke: #000000; stroke-linejoin: miter"/>
     <use xlink:href="#m888b8934f9" x="728.761075" y="137.29248" style="fill: #dd7c4f; stroke: #000000; stroke-linejoin: miter"/>
     <use xlink:href="#m888b8934f9" x="918.481075" y="120.9024" style="fill: #dd7c4f; stroke: #000000; stroke-linejoin: miter"/>
    </g>
   </g>
   <g id="line2d_28">
    <defs>
     <path id="m790c38138b" d="M -12.5 -0 
L 12.5 12.5 
L 12.5 -12.5 
z
" style="stroke: #000000; stroke-linejoin: miter"/>
    </defs>
    <g clip-path="url(#pf2fdedc688)">
     <use xlink:href="#m790c38138b" x="186.161875" y="306.576" style="fill: #629c35; stroke: #000000; stroke-linejoin: miter"/>
     <use xlink:href="#m790c38138b" x="375.881875" y="272.16288" style="fill: #629c35; stroke: #000000; stroke-linejoin: miter"/>
     <use xlink:href="#m790c38138b" x="565.601875" y="233.21376" style="fill: #629c35; stroke: #000000; stroke-linejoin: miter"/>
     <use xlink:href="#m790c38138b" x="755.321875" y="126.648" style="fill: #629c35; stroke: #000000; stroke-linejoin: miter"/>
     <use xlink:href="#m790c38138b" x="945.041875" y="51.9552" style="fill: #629c35; stroke: #000000; stroke-linejoin: miter"/>
    </g>
   </g>
   <g id="line2d_29">
    <defs>
     <path id="ma07c514a85" d="M 0 12.5 
C 3.315039 12.5 6.494748 11.182921 8.838835 8.838835 
C 11.182921 6.494748 12.5 3.315039 12.5 0 
C 12.5 -3.315039 11.182921 -6.494748 8.838835 -8.838835 
C 6.494748 -11.182921 3.315039 -12.5 0 -12.5 
C -3.315039 -12.5 -6.494748 -11.182921 -8.838835 -8.838835 
C -11.182921 -6.494748 -12.5 -3.315039 -12.5 0 
C -12.5 3.315039 -11.182921 6.494748 -8.838835 8.838835 
C -6.494748 11.182921 -3.315039 12.5 0 12.5 
z
" style="stroke: #000000"/>
    </defs>
    <g clip-path="url(#pf2fdedc688)">
     <use xlink:href="#ma07c514a85" x="212.722675" y="282.92832" style="fill: #b55489; stroke: #000000"/>
     <use xlink:href="#ma07c514a85" x="402.442675" y="231.5808" style="fill: #b55489; stroke: #000000"/>
     <use xlink:href="#ma07c514a85" x="592.162675" y="200.31264" style="fill: #b55489; stroke: #000000"/>
     <use xlink:href="#ma07c514a85" x="781.882675" y="119.088" style="fill: #b55489; stroke: #000000"/>
     <use xlink:href="#ma07c514a85" x="971.602675" y="79.776" style="fill: #b55489; stroke: #000000"/>
    </g>
   </g>
   <g id="line2d_30">
    <defs>
     <path id="m8181efd542" d="M 0 -12.5 
L -2.806425 -3.862712 
L -11.888206 -3.862712 
L -4.540891 1.475425 
L -7.347316 10.112712 
L -0 4.774575 
L 7.347316 10.112712 
L 4.540891 1.475425 
L 11.888206 -3.862712 
L 2.806425 -3.862712 
z
" style="stroke: #000000; stroke-linejoin: bevel"/>
    </defs>
    <g clip-path="url(#pf2fdedc688)">
     <use xlink:href="#m8181efd542" x="239.283475" y="257.64768" style="fill: #ff6347; stroke: #000000; stroke-linejoin: bevel"/>
     <use xlink:href="#m8181efd542" x="429.003475" y="218.39616" style="fill: #ff6347; stroke: #000000; stroke-linejoin: bevel"/>
     <use xlink:href="#m8181efd542" x="618.723475" y="191.60352" style="fill: #ff6347; stroke: #000000; stroke-linejoin: bevel"/>
     <use xlink:href="#m8181efd542" x="808.443475" y="106.6896" style="fill: #ff6347; stroke: #000000; stroke-linejoin: bevel"/>
     <use xlink:href="#m8181efd542" x="998.163475" y="58.06368" style="fill: #ff6347; stroke: #000000; stroke-linejoin: bevel"/>
    </g>
   </g>
   <g id="patch_3">
    <path d="M 91.301875 339.84 
L 91.301875 7.2 
" style="fill: none; stroke: #262626; stroke-width: 0.8; stroke-linejoin: miter; stroke-linecap: square"/>
   </g>
   <g id="patch_4">
    <path d="M 1039.901875 339.84 
L 1039.901875 7.2 
" style="fill: none; stroke: #262626; stroke-width: 0.8; stroke-linejoin: miter; stroke-linecap: square"/>
   </g>
   <g id="patch_5">
    <path d="M 91.301875 339.84 
L 1039.901875 339.84 
" style="fill: none; stroke: #262626; stroke-width: 0.8; stroke-linejoin: miter; stroke-linecap: square"/>
   </g>
   <g id="patch_6">
    <path d="M 91.301875 7.2 
L 1039.901875 7.2 
" style="fill: none; stroke: #262626; stroke-width: 0.8; stroke-linejoin: miter; stroke-linecap: square"/>
   </g>
   <g id="legend_1">
    <g id="patch_7">
     <path d="M 134.301406 134.203906 
L 595.531875 134.203906 
Q 600.531875 134.203906 600.531875 129.203906 
L 600.531875 24.7 
Q 600.531875 19.7 595.531875 19.7 
L 134.301406 19.7 
Q 129.301406 19.7 129.301406 24.7 
L 129.301406 129.203906 
Q 129.301406 134.203906 134.301406 134.203906 
z
" style="fill: #ffffff; opacity: 0.8; stroke: #cccccc; stroke-linejoin: miter"/>
    </g>
    <g id="LineCollection_6">
     <path d="M 164.301406 51.649219 
L 164.301406 26.649219 
" style="fill: none; stroke: #000000; stroke-width: 1.5"/>
    </g>
    <g id="line2d_31">
     <g>
      <use xlink:href="#m37c3fe3fae" x="164.301406" y="51.649219" style="stroke: #000000"/>
     </g>
    </g>
    <g id="line2d_32">
     <g>
      <use xlink:href="#m37c3fe3fae" x="164.301406" y="26.649219" style="stroke: #000000"/>
     </g>
    </g>
    <g id="line2d_33"/>
    <g id="line2d_34">
     <defs>
      <path id="m3aef64e21b" d="M -0 10 
L 10 -10 
L -10 -10 
z
" style="stroke: #000000; stroke-linejoin: miter"/>
     </defs>
     <g>
      <use xlink:href="#m3aef64e21b" x="164.301406" y="39.149219" style="fill: #547bb4; stroke: #000000; stroke-linejoin: miter"/>
     </g>
    </g>
    <g id="text_13">
     <!-- Specialist 1 -->
     <g style="fill: #262626" transform="translate(209.301406 47.899219) scale(0.25 -0.25)">
      <defs>
       <path id="ArialMT-53" d="M 288 1472 
L 859 1522 
Q 900 1178 1048 958 
Q 1197 738 1509 602 
Q 1822 466 2213 466 
Q 2559 466 2825 569 
Q 3091 672 3220 851 
Q 3350 1031 3350 1244 
Q 3350 1459 3225 1620 
Q 3100 1781 2813 1891 
Q 2628 1963 1997 2114 
Q 1366 2266 1113 2400 
Q 784 2572 623 2826 
Q 463 3081 463 3397 
Q 463 3744 659 4045 
Q 856 4347 1234 4503 
Q 1613 4659 2075 4659 
Q 2584 4659 2973 4495 
Q 3363 4331 3572 4012 
Q 3781 3694 3797 3291 
L 3216 3247 
Q 3169 3681 2898 3903 
Q 2628 4125 2100 4125 
Q 1550 4125 1298 3923 
Q 1047 3722 1047 3438 
Q 1047 3191 1225 3031 
Q 1400 2872 2139 2705 
Q 2878 2538 3153 2413 
Q 3553 2228 3743 1945 
Q 3934 1663 3934 1294 
Q 3934 928 3725 604 
Q 3516 281 3123 101 
Q 2731 -78 2241 -78 
Q 1619 -78 1198 103 
Q 778 284 539 648 
Q 300 1013 288 1472 
z
" transform="scale(0.015625)"/>
       <path id="ArialMT-70" d="M 422 -1272 
L 422 3319 
L 934 3319 
L 934 2888 
Q 1116 3141 1344 3267 
Q 1572 3394 1897 3394 
Q 2322 3394 2647 3175 
Q 2972 2956 3137 2557 
Q 3303 2159 3303 1684 
Q 3303 1175 3120 767 
Q 2938 359 2589 142 
Q 2241 -75 1856 -75 
Q 1575 -75 1351 44 
Q 1128 163 984 344 
L 984 -1272 
L 422 -1272 
z
M 931 1641 
Q 931 1000 1190 694 
Q 1450 388 1819 388 
Q 2194 388 2461 705 
Q 2728 1022 2728 1688 
Q 2728 2322 2467 2637 
Q 2206 2953 1844 2953 
Q 1484 2953 1207 2617 
Q 931 2281 931 1641 
z
" transform="scale(0.015625)"/>
       <path id="ArialMT-63" d="M 2588 1216 
L 3141 1144 
Q 3050 572 2676 248 
Q 2303 -75 1759 -75 
Q 1078 -75 664 370 
Q 250 816 250 1647 
Q 250 2184 428 2587 
Q 606 2991 970 3192 
Q 1334 3394 1763 3394 
Q 2303 3394 2647 3120 
Q 2991 2847 3088 2344 
L 2541 2259 
Q 2463 2594 2264 2762 
Q 2066 2931 1784 2931 
Q 1359 2931 1093 2626 
Q 828 2322 828 1663 
Q 828 994 1084 691 
Q 1341 388 1753 388 
Q 2084 388 2306 591 
Q 2528 794 2588 1216 
z
" transform="scale(0.015625)"/>
       <path id="ArialMT-69" d="M 425 3934 
L 425 4581 
L 988 4581 
L 988 3934 
L 425 3934 
z
M 425 0 
L 425 3319 
L 988 3319 
L 988 0 
L 425 0 
z
" transform="scale(0.015625)"/>
       <path id="ArialMT-74" d="M 1650 503 
L 1731 6 
Q 1494 -44 1306 -44 
Q 1000 -44 831 53 
Q 663 150 594 308 
Q 525 466 525 972 
L 525 2881 
L 113 2881 
L 113 3319 
L 525 3319 
L 525 4141 
L 1084 4478 
L 1084 3319 
L 1650 3319 
L 1650 2881 
L 1084 2881 
L 1084 941 
Q 1084 700 1114 631 
Q 1144 563 1211 522 
Q 1278 481 1403 481 
Q 1497 481 1650 503 
z
" transform="scale(0.015625)"/>
      </defs>
      <use xlink:href="#ArialMT-53"/>
      <use xlink:href="#ArialMT-70" x="66.699219"/>
      <use xlink:href="#ArialMT-65" x="122.314453"/>
      <use xlink:href="#ArialMT-63" x="177.929688"/>
      <use xlink:href="#ArialMT-69" x="227.929688"/>
      <use xlink:href="#ArialMT-61" x="250.146484"/>
      <use xlink:href="#ArialMT-6c" x="305.761719"/>
      <use xlink:href="#ArialMT-69" x="327.978516"/>
      <use xlink:href="#ArialMT-73" x="350.195312"/>
      <use xlink:href="#ArialMT-74" x="400.195312"/>
      <use xlink:href="#ArialMT-20" x="427.978516"/>
      <use xlink:href="#ArialMT-31" x="455.761719"/>
     </g>
    </g>
    <g id="LineCollection_7">
     <path d="M 164.301406 87.317188 
L 164.301406 62.317188 
" style="fill: none; stroke: #000000; stroke-width: 1.5"/>
    </g>
    <g id="line2d_35">
     <g>
      <use xlink:href="#m37c3fe3fae" x="164.301406" y="87.317188" style="stroke: #000000"/>
     </g>
    </g>
    <g id="line2d_36">
     <g>
      <use xlink:href="#m37c3fe3fae" x="164.301406" y="62.317188" style="stroke: #000000"/>
     </g>
    </g>
    <g id="line2d_37"/>
    <g id="line2d_38">
     <defs>
      <path id="m2e5cfe6d37" d="M 0 -10 
L -10 10 
L 10 10 
z
" style="stroke: #000000; stroke-linejoin: miter"/>
     </defs>
     <g>
      <use xlink:href="#m2e5cfe6d37" x="164.301406" y="74.817188" style="fill: #dd7c4f; stroke: #000000; stroke-linejoin: miter"/>
     </g>
    </g>
    <g id="text_14">
     <!-- Specialist 3 -->
     <g style="fill: #262626" transform="translate(209.301406 83.567188) scale(0.25 -0.25)">
      <use xlink:href="#ArialMT-53"/>
      <use xlink:href="#ArialMT-70" x="66.699219"/>
      <use xlink:href="#ArialMT-65" x="122.314453"/>
      <use xlink:href="#ArialMT-63" x="177.929688"/>
      <use xlink:href="#ArialMT-69" x="227.929688"/>
      <use xlink:href="#ArialMT-61" x="250.146484"/>
      <use xlink:href="#ArialMT-6c" x="305.761719"/>
      <use xlink:href="#ArialMT-69" x="327.978516"/>
      <use xlink:href="#ArialMT-73" x="350.195312"/>
      <use xlink:href="#ArialMT-74" x="400.195312"/>
      <use xlink:href="#ArialMT-20" x="427.978516"/>
      <use xlink:href="#ArialMT-33" x="455.761719"/>
     </g>
    </g>
    <g id="LineCollection_8">
     <path d="M 164.301406 122.985156 
L 164.301406 97.985156 
" style="fill: none; stroke: #000000; stroke-width: 1.5"/>
    </g>
    <g id="line2d_39">
     <g>
      <use xlink:href="#m37c3fe3fae" x="164.301406" y="122.985156" style="stroke: #000000"/>
     </g>
    </g>
    <g id="line2d_40">
     <g>
      <use xlink:href="#m37c3fe3fae" x="164.301406" y="97.985156" style="stroke: #000000"/>
     </g>
    </g>
    <g id="line2d_41"/>
    <g id="line2d_42">
     <defs>
      <path id="m2e0097d686" d="M -10 -0 
L 10 10 
L 10 -10 
z
" style="stroke: #000000; stroke-linejoin: miter"/>
     </defs>
     <g>
      <use xlink:href="#m2e0097d686" x="164.301406" y="110.485156" style="fill: #629c35; stroke: #000000; stroke-linejoin: miter"/>
     </g>
    </g>
    <g id="text_15">
     <!-- Specialist 5 -->
     <g style="fill: #262626" transform="translate(209.301406 119.235156) scale(0.25 -0.25)">
      <use xlink:href="#ArialMT-53"/>
      <use xlink:href="#ArialMT-70" x="66.699219"/>
      <use xlink:href="#ArialMT-65" x="122.314453"/>
      <use xlink:href="#ArialMT-63" x="177.929688"/>
      <use xlink:href="#ArialMT-69" x="227.929688"/>
      <use xlink:href="#ArialMT-61" x="250.146484"/>
      <use xlink:href="#ArialMT-6c" x="305.761719"/>
      <use xlink:href="#ArialMT-69" x="327.978516"/>
      <use xlink:href="#ArialMT-73" x="350.195312"/>
      <use xlink:href="#ArialMT-74" x="400.195312"/>
      <use xlink:href="#ArialMT-20" x="427.978516"/>
      <use xlink:href="#ArialMT-35" x="455.761719"/>
     </g>
    </g>
    <g id="LineCollection_9">
     <path d="M 412.14125 51.649219 
L 412.14125 26.649219 
" style="fill: none; stroke: #000000; stroke-width: 1.5"/>
    </g>
    <g id="line2d_43">
     <g>
      <use xlink:href="#m37c3fe3fae" x="412.14125" y="51.649219" style="stroke: #000000"/>
     </g>
    </g>
    <g id="line2d_44">
     <g>
      <use xlink:href="#m37c3fe3fae" x="412.14125" y="26.649219" style="stroke: #000000"/>
     </g>
    </g>
    <g id="line2d_45"/>
    <g id="line2d_46">
     <defs>
      <path id="mc80d7cb1ef" d="M 0 10 
C 2.652031 10 5.195799 8.946337 7.071068 7.071068 
C 8.946337 5.195799 10 2.652031 10 0 
C 10 -2.652031 8.946337 -5.195799 7.071068 -7.071068 
C 5.195799 -8.946337 2.652031 -10 0 -10 
C -2.652031 -10 -5.195799 -8.946337 -7.071068 -7.071068 
C -8.946337 -5.195799 -10 -2.652031 -10 0 
C -10 2.652031 -8.946337 5.195799 -7.071068 7.071068 
C -5.195799 8.946337 -2.652031 10 0 10 
z
" style="stroke: #000000"/>
     </defs>
     <g>
      <use xlink:href="#mc80d7cb1ef" x="412.14125" y="39.149219" style="fill: #b55489; stroke: #000000"/>
     </g>
    </g>
    <g id="text_16">
     <!-- Initial model -->
     <g style="fill: #262626" transform="translate(457.14125 47.899219) scale(0.25 -0.25)">
      <defs>
       <path id="ArialMT-49" d="M 597 0 
L 597 4581 
L 1203 4581 
L 1203 0 
L 597 0 
z
" transform="scale(0.015625)"/>
       <path id="ArialMT-6e" d="M 422 0 
L 422 3319 
L 928 3319 
L 928 2847 
Q 1294 3394 1984 3394 
Q 2284 3394 2536 3286 
Q 2788 3178 2913 3003 
Q 3038 2828 3088 2588 
Q 3119 2431 3119 2041 
L 3119 0 
L 2556 0 
L 2556 2019 
Q 2556 2363 2490 2533 
Q 2425 2703 2258 2804 
Q 2091 2906 1866 2906 
Q 1506 2906 1245 2678 
Q 984 2450 984 1813 
L 984 0 
L 422 0 
z
" transform="scale(0.015625)"/>
       <path id="ArialMT-6d" d="M 422 0 
L 422 3319 
L 925 3319 
L 925 2853 
Q 1081 3097 1340 3245 
Q 1600 3394 1931 3394 
Q 2300 3394 2536 3241 
Q 2772 3088 2869 2813 
Q 3263 3394 3894 3394 
Q 4388 3394 4653 3120 
Q 4919 2847 4919 2278 
L 4919 0 
L 4359 0 
L 4359 2091 
Q 4359 2428 4304 2576 
Q 4250 2725 4106 2815 
Q 3963 2906 3769 2906 
Q 3419 2906 3187 2673 
Q 2956 2441 2956 1928 
L 2956 0 
L 2394 0 
L 2394 2156 
Q 2394 2531 2256 2718 
Q 2119 2906 1806 2906 
Q 1569 2906 1367 2781 
Q 1166 2656 1075 2415 
Q 984 2175 984 1722 
L 984 0 
L 422 0 
z
" transform="scale(0.015625)"/>
       <path id="ArialMT-64" d="M 2575 0 
L 2575 419 
Q 2259 -75 1647 -75 
Q 1250 -75 917 144 
Q 584 363 401 755 
Q 219 1147 219 1656 
Q 219 2153 384 2558 
Q 550 2963 881 3178 
Q 1213 3394 1622 3394 
Q 1922 3394 2156 3267 
Q 2391 3141 2538 2938 
L 2538 4581 
L 3097 4581 
L 3097 0 
L 2575 0 
z
M 797 1656 
Q 797 1019 1065 703 
Q 1334 388 1700 388 
Q 2069 388 2326 689 
Q 2584 991 2584 1609 
Q 2584 2291 2321 2609 
Q 2059 2928 1675 2928 
Q 1300 2928 1048 2622 
Q 797 2316 797 1656 
z
" transform="scale(0.015625)"/>
      </defs>
      <use xlink:href="#ArialMT-49"/>
      <use xlink:href="#ArialMT-6e" x="27.783203"/>
      <use xlink:href="#ArialMT-69" x="83.398438"/>
      <use xlink:href="#ArialMT-74" x="105.615234"/>
      <use xlink:href="#ArialMT-69" x="133.398438"/>
      <use xlink:href="#ArialMT-61" x="155.615234"/>
      <use xlink:href="#ArialMT-6c" x="211.230469"/>
      <use xlink:href="#ArialMT-20" x="233.447266"/>
      <use xlink:href="#ArialMT-6d" x="261.230469"/>
      <use xlink:href="#ArialMT-6f" x="344.53125"/>
      <use xlink:href="#ArialMT-64" x="400.146484"/>
      <use xlink:href="#ArialMT-65" x="455.761719"/>
      <use xlink:href="#ArialMT-6c" x="511.376953"/>
     </g>
    </g>
    <g id="LineCollection_10">
     <path d="M 412.14125 87.0125 
L 412.14125 62.0125 
" style="fill: none; stroke: #000000; stroke-width: 1.5"/>
    </g>
    <g id="line2d_47">
     <g>
      <use xlink:href="#m37c3fe3fae" x="412.14125" y="87.0125" style="stroke: #000000"/>
     </g>
    </g>
    <g id="line2d_48">
     <g>
      <use xlink:href="#m37c3fe3fae" x="412.14125" y="62.0125" style="stroke: #000000"/>
     </g>
    </g>
    <g id="line2d_49"/>
    <g id="line2d_50">
     <defs>
      <path id="m97c31692dd" d="M 0 -10 
L -2.24514 -3.09017 
L -9.510565 -3.09017 
L -3.632713 1.18034 
L -5.877853 8.09017 
L -0 3.81966 
L 5.877853 8.09017 
L 3.632713 1.18034 
L 9.510565 -3.09017 
L 2.24514 -3.09017 
z
" style="stroke: #000000; stroke-linejoin: bevel"/>
     </defs>
     <g>
      <use xlink:href="#m97c31692dd" x="412.14125" y="74.5125" style="fill: #ff6347; stroke: #000000; stroke-linejoin: bevel"/>
     </g>
    </g>
    <g id="text_17">
     <!-- Generalist -->
     <g style="fill: #262626" transform="translate(457.14125 83.2625) scale(0.25 -0.25)">
      <defs>
       <path id="ArialMT-47" d="M 2638 1797 
L 2638 2334 
L 4578 2338 
L 4578 638 
Q 4131 281 3656 101 
Q 3181 -78 2681 -78 
Q 2006 -78 1454 211 
Q 903 500 622 1047 
Q 341 1594 341 2269 
Q 341 2938 620 3517 
Q 900 4097 1425 4378 
Q 1950 4659 2634 4659 
Q 3131 4659 3532 4498 
Q 3934 4338 4162 4050 
Q 4391 3763 4509 3300 
L 3963 3150 
Q 3859 3500 3706 3700 
Q 3553 3900 3268 4020 
Q 2984 4141 2638 4141 
Q 2222 4141 1919 4014 
Q 1616 3888 1430 3681 
Q 1244 3475 1141 3228 
Q 966 2803 966 2306 
Q 966 1694 1177 1281 
Q 1388 869 1791 669 
Q 2194 469 2647 469 
Q 3041 469 3416 620 
Q 3791 772 3984 944 
L 3984 1797 
L 2638 1797 
z
" transform="scale(0.015625)"/>
       <path id="ArialMT-72" d="M 416 0 
L 416 3319 
L 922 3319 
L 922 2816 
Q 1116 3169 1280 3281 
Q 1444 3394 1641 3394 
Q 1925 3394 2219 3213 
L 2025 2691 
Q 1819 2813 1613 2813 
Q 1428 2813 1281 2702 
Q 1134 2591 1072 2394 
Q 978 2094 978 1738 
L 978 0 
L 416 0 
z
" transform="scale(0.015625)"/>
      </defs>
      <use xlink:href="#ArialMT-47"/>
      <use xlink:href="#ArialMT-65" x="77.783203"/>
      <use xlink:href="#ArialMT-6e" x="133.398438"/>
      <use xlink:href="#ArialMT-65" x="189.013672"/>
      <use xlink:href="#ArialMT-72" x="244.628906"/>
      <use xlink:href="#ArialMT-61" x="277.929688"/>
      <use xlink:href="#ArialMT-6c" x="333.544922"/>
      <use xlink:href="#ArialMT-69" x="355.761719"/>
      <use xlink:href="#ArialMT-73" x="377.978516"/>
      <use xlink:href="#ArialMT-74" x="427.978516"/>
     </g>
    </g>
   </g>
  </g>
 </g>
 <defs>
  <clipPath id="pf2fdedc688">
   <rect x="91.301875" y="7.2" width="948.6" height="332.64"/>
  </clipPath>
 </defs>
</svg>
